<svg xmlns="http://www.w3.org/2000/svg" width="370" height="109.3" viewBox="0 0 370 109.3">
  <g id="Xtreme_logo" data-name="Xtreme logo" transform="translate(-15 -18.9)">
    <g id="X_1_">
      <path id="Trazado_1" data-name="Trazado 1" d="M15,128.2,144,18.9h21.1L36.7,128.2Z" fill="#ff3900"/>
      <path id="Trazado_2" data-name="Trazado 2" d="M93,62.1,80.3,46.7s-4-5.2-12.7-5.2H45.1L74.8,77.6Z"/>
      <path id="Trazado_3" data-name="Trazado 3" d="M91.5,97.3l12.6,15.4s4,5.2,12.7,5.2h22.6L109.7,81.8Z"/>
    </g>
    <g id="Causten_Extra_bold">
      <path id="Trazado_4" data-name="Trazado 4" d="M134.5,62.9h44V74.1H162.7v43.2H150.4V74.1H134.6V62.9Z"/>
      <g id="Grupo_2" data-name="Grupo 2">
        <g id="Grupo_1" data-name="Grupo 1">
          <path id="Trazado_5" data-name="Trazado 5" d="M215,99.3a14.249,14.249,0,0,0,3.5-1.1h0c.2-.1.3-.1.4-.2a16.653,16.653,0,0,0,7.1-6.1,18.427,18.427,0,0,0,2.9-10.7c0-5.8-1.7-10.3-5.2-13.5a16.919,16.919,0,0,0-11.8-4.9H185.5v54.5H198V99.6h2.7l8.2,11.7c4.6,5.1,8.7,6,13.1,6h7ZM198,87.7V74.8h12a7.138,7.138,0,0,1,4.7,1.7,6.522,6.522,0,0,1,0,9.4,7.138,7.138,0,0,1-4.7,1.7H198Z"/>
        </g>
      </g>
      <path id="Trazado_6" data-name="Trazado 6" d="M274.8,62.9V74.1H249.7V84.5H273V95.7H249.7v10.4h25.1v11.2H237.4V62.9Z"/>
      <path id="Trazado_7" data-name="Trazado 7" d="M295.6,62.9l15.2,30.3,15.3-30.3h12.4v54.5H326.2V88l-11.1,23.2h-8.5L295.5,88v29.3H283.2V62.9Z"/>
      <path id="Trazado_8" data-name="Trazado 8" d="M384.7,62.9V74.1H359.6V84.5H383V95.7H359.7v10.4h25.1v11.2H347.4V62.9Z"/>
      <g id="Causten_Regular_Oblique_2_">
        <g id="Grupo_3" data-name="Grupo 3">
          <path id="Trazado_9" data-name="Trazado 9" d="M237.2,55.5,239,41h1.6L247,52.6,248.4,41h1.7l-1.8,14.5h-1.6l-6.4-11.6-1.4,11.6Z" fill="#ff3900"/>
          <path id="Trazado_10" data-name="Trazado 10" d="M262.1,42.6h-7.7l-.6,4.9H261l-.2,1.6h-7.2L253,54h7.7l-.2,1.6h-9.4l1.8-14.5h9.4Z" fill="#ff3900"/>
          <path id="Trazado_11" data-name="Trazado 11" d="M266.1,41l3.3,11.8L275.6,41h1.8l-7.7,14.5h-1.3L264.3,41Z" fill="#ff3900"/>
          <path id="Trazado_12" data-name="Trazado 12" d="M288.5,42.6h-7.7l-.6,4.9h7.2l-.2,1.6H280l-.6,4.9h7.7l-.2,1.6h-9.4l1.8-14.5h9.4Z" fill="#ff3900"/>
          <path id="Trazado_13" data-name="Trazado 13" d="M289.6,55.5,291.4,41h6.7a3.693,3.693,0,0,1,2.7,1.1,4,4,0,0,1,1,2.6v.7a4.7,4.7,0,0,1-1.4,3,4.439,4.439,0,0,1-2.8,1.4l3.2,5.7h-2l-3.2-5.7H292l-.7,5.7Zm7.3-7.3a2.792,2.792,0,0,0,2-.8,2.975,2.975,0,0,0,1-2V45a2.452,2.452,0,0,0-.6-1.6,2.139,2.139,0,0,0-1.8-.7h-4.8l-.7,5.6h4.9Z" fill="#ff3900"/>
          <path id="Trazado_14" data-name="Trazado 14" d="M308.2,48.3a8.5,8.5,0,0,1,2.7-5.3,7.707,7.707,0,0,1,5.5-2.1,6.71,6.71,0,0,1,3.3.8,5.558,5.558,0,0,1,2.2,2.1l-1.5,1a4.513,4.513,0,0,0-4.2-2.2,5.809,5.809,0,0,0-4.2,1.6,6.782,6.782,0,0,0-2.1,4.1c0,.3-.1.6-.1.9a5.233,5.233,0,0,0,1.2,3.4,4.489,4.489,0,0,0,3.7,1.4,5.548,5.548,0,0,0,5.6-4.5h-5.1l.2-1.6h7l-.1.7a8.377,8.377,0,0,1-2.6,5.1,7.509,7.509,0,0,1-5.2,2,5.908,5.908,0,0,1-4.8-1.9,6.462,6.462,0,0,1-1.6-4.4A4.484,4.484,0,0,1,308.2,48.3Z" fill="#ff3900"/>
          <path id="Trazado_15" data-name="Trazado 15" d="M325.7,55.5H324L325.8,41h1.7Z" fill="#ff3900"/>
          <path id="Trazado_16" data-name="Trazado 16" d="M331.4,41l3.3,11.8L340.9,41h1.8L335,55.5h-1.3L329.6,41Z" fill="#ff3900"/>
          <path id="Trazado_17" data-name="Trazado 17" d="M353.8,42.6h-7.7l-.6,4.9h7.2l-.2,1.6h-7.2l-.6,4.9h7.7l-.2,1.6h-9.4l1.8-14.5H354Z" fill="#ff3900"/>
          <path id="Trazado_18" data-name="Trazado 18" d="M360,50.5l1.2-9.5h1.7l-1.1,9.3V51a3.3,3.3,0,0,0,.8,2.2,3.18,3.18,0,0,0,2.5.9,4.271,4.271,0,0,0,2.9-1,4.434,4.434,0,0,0,1.4-2.7l1.1-9.3h1.7L371,50.6a5.565,5.565,0,0,1-1.9,3.7,6,6,0,0,1-4.2,1.5,4.638,4.638,0,0,1-3.7-1.3,4.472,4.472,0,0,1-1.2-3.1A2.7,2.7,0,0,1,360,50.5Z" fill="#ff3900"/>
          <path id="Trazado_19" data-name="Trazado 19" d="M374.8,41h6.5a3.693,3.693,0,0,1,2.7,1.1,4,4,0,0,1,1,2.6v.7a4.718,4.718,0,0,1-1.6,3.2,4.471,4.471,0,0,1-3.1,1.2h-4.9l-.7,5.7H373Zm.8,7.2h4.6a3.088,3.088,0,0,0,3-2.8V45a2.452,2.452,0,0,0-.6-1.6,2.139,2.139,0,0,0-1.8-.7h-4.6Z" fill="#ff3900"/>
        </g>
      </g>
    </g>
  </g>
</svg>
